<svg xmlns="http://www.w3.org/2000/svg" viewBox="0 0 450.36 75.17"><defs><clipPath id="a"><path fill="none" d="M387.14 65A108.54 108.54 0 0 1 385 43.19a100.16 100.16 0 0 1 1.33-17.07 20.93 20.93 0 0 1 .71-2.77 11.1 11.1 0 0 1 6.35-6.74 28.88 28.88 0 0 1 4.87-1.61 83.71 83.71 0 0 1 19.15-2.37h.45A78.06 78.06 0 0 1 436.77 15a49.58 49.58 0 0 1 5.15 1.68s5.07 2 6.42 6.67A24.76 24.76 0 0 1 449 26a114.94 114.94 0 0 1 1.36 17.21 110.06 110.06 0 0 1-2.2 21.93 10.05 10.05 0 0 1-7.66 7.75l-.36.07a115.36 115.36 0 0 1-22.46 2.2A115.39 115.39 0 0 1 395.26 73l-.5-.1a10 10 0 0 1-5.76-3.7 8.83 8.83 0 0 1-1.86-4.2Z"/></clipPath></defs><g fill="#0545b1"><path d="M48 15.47s-.23-13.25 15-13.4h14.17c3 0 5.63 2.13 5.63 4.74 0 2.61-2.58 4.8-5.63 4.8h-6.58c-4.37 0-4 3.18-4 3.18v6.22h7.94c3.15 0 5.73 2 5.73 4.62S78 30.29 75 30.29h-8.4v31.42c0 4.42-3.82 8.35-9.14 8.35S48 66.48 48 62.01ZM100.81 61.64c0 4.78-3.83 8.42-9.13 8.42-5.3 0-9.55-3.64-9.55-8.05V33.7s0-12.48 15.43-12.48h12.22c6.4 0 6.4 4.9 6.4 4.9s0 4.71-6 4.71h-5.38c-4 0-4 3.09-4 3.09zM191.56 20.88c15.95 0 15.95 12.81 15.95 12.81v13.32c0 2.67-2.59 4.63-5.74 4.63h-17.59v5.7s.18 3 4.24 3h9.86c3.17 0 5.66 2.11 5.66 4.78 0 2.67-2.57 5-5.66 5H181c-15.21 0-15.21-12.64-15.21-12.64V33.69s.12-12.67 15.32-12.81zm-3.06 10c-4.14 0-4.14 3-4.14 3v8.25h11.77v-8s0-3.23-3.73-3.23zM247.47 60.52c3.16-.08 6 2.38 6 5.05s-2.83 4.49-6 4.49h-24.84c-5.23 0-9-3.16-9-7.64V28.95c0-4.43 4.31-8.07 9.55-8.07h25.25c3.18 0 5.66 2.11 5.66 4.76s-2.48 4.64-5.66 4.64H235a2.05 2.05 0 0 0-2.31 2v26.19s-.16 2 2.33 2zM296.66 33.59v28.25c0 4.5-4.34 8.22-9.66 8.22h-16.11C255 70.06 255 57.27 255 57.27v-6.33s1-11.56 15.88-11.5h6.81v-5.79s0-3-3.74-3h-8.64c-3.16 0-6.22-1.86-6.22-4.53s2.9-5.23 6-5.23h16.3c15.27.12 15.27 12.7 15.27 12.7zm-26.54 26.78h7.55V49.1h-7.55c-4.12 0-3.72 5.63-3.72 5.63s-.4 5.64 3.72 5.64zM341 8.49s0-4.32-5.72-4.32h-39.67c-5.73 0-5.73 4.19-5.73 4.19s0 4.15 5.36 4.15h8.3c3.57 0 3.57 2.71 3.57 2.71V40.8c0 4.2 3.42 7.41 8.17 7.41s8.53-3.21 8.53-7.1V15.18c.06-.59.51-2.55 3.55-2.55h8.29c5.35 0 5.35-4.14 5.35-4.14ZM41.68 33.57v28.27c0 4.5-4.35 8.22-9.66 8.22H15.89C0 70.06 0 57.26 0 57.26v-6.33s1-11.56 15.89-11.51h6.81v-5.79s0-3-3.74-3h-8.64c-3.16 0-6.24-1.85-6.24-4.53s2.92-5.23 6.07-5.23h16.31c15.22.08 15.22 12.7 15.22 12.7zM15.12 60.36h7.55V49.1h-7.55c-4.27 0-3.72 5.63-3.72 5.63s-.4 5.63 3.72 5.63zM143.75 20.88c15.95 0 15.95 12.81 15.95 12.81v13.32c0 2.67-2.59 4.63-5.74 4.63h-17.58v5.7s.17 3 4.23 3h9.86c3.17 0 5.66 2.11 5.66 4.78 0 2.67-2.57 5-5.66 5h-17.32c-15.21 0-15.21-12.64-15.21-12.64V33.69s.12-12.67 15.32-12.81zm-3.06 10c-4.14 0-4.14 3-4.14 3v8.25h11.77v-8s0-3.23-3.73-3.23z"/><path d="M375.9 5.59c-3.73-2.51-9-1.21-11.76 2.91l-15 20.16-5.45-11.65c-1-2.19-5.32-3.23-7.61-2.17s-3.71 4.35-2.7 6.54l9.92 22.79c.78 1.66 2.54 3 5.33 3.71a9.82 9.82 0 0 0 10-4.17l19-26.11c2.82-4.15 2.01-9.51-1.73-12.01z"/></g><path fill="#0545b1" d="M435.22 1.28a2.33 2.33 0 0 1-1.36 3.25l-14.11 6.41a4.66 4.66 0 0 1-4.37-.1l-9.12-4.32a2.34 2.34 0 0 1-.61-3.44 2.3 2.3 0 0 1 3.35-.26l7 5.64a2.47 2.47 0 0 0 2.19.52 3 3 0 0 0 .81-.37L431.91.34a2.35 2.35 0 0 1 3.31.94z"/><g clip-path="url(#a)" transform="translate(0 .01)"><path fill="#0545b1" d="M453.24 27.38c-1-7.4-2.7-11.63-12.33-13.81A105.8 105.8 0 0 0 420.77 11c-1.09-.05-2.19-.05-3.29 0a105.71 105.71 0 0 0-20.13 2.58c-7.13 1.62-9.92 4.35-11.29 8.67-.24.76 2.06-.45 1.89.41-.17.86.53 12.21.4 13.17-1 7.29-4.24 7.61-4.24 7.87A134.72 134.72 0 0 0 385 60c1 7.4 2.71 11.62 12.34 13.81 8.68 2 15 1.83 20.13 2.06h3.29c5.16-.23 11.45-.1 20.14-2.06 9.63-2.19 11.34-6.41 12.33-13.81a132.48 132.48 0 0 0 .9-16.31c0-.14-1.45-3-2.88-6.78-.14-.37-1.08 1.57-1.22 1.19-1-2.74-1.09-8.12-1.41-10.85-.04-.44 4.68.56 4.62.13z"/><path fill="#00bbed" d="M428.87 33.56c-.07-2.56-.1-5.08 0-7.61a5.56 5.56 0 0 1 2.58-4.79 6.39 6.39 0 0 1 5.83-.29c3 1.33 6.82 3.37 6.82 3.37 2.21 1.2 4.07 2.21 6.39 3.72a2.5 2.5 0 0 1 .35.21 5.63 5.63 0 0 1 .07 9.45c-2.2 1.46-4.11 2.85-6.37 4.25a60 60 0 0 1-5.93 3.31 7.37 7.37 0 0 1-6.32.32 6.14 6.14 0 0 1-3-4.94s-.29-2.79-.42-7z"/><path fill="#fff" d="M432.75 53.93c-7.31 6.8-23.16 6.81-30.27 0a1.44 1.44 0 0 0-2 2.07c8.21 7.84 25.8 7.85 34.21 0a1.433 1.433 0 1 0-1.95-2.1z"/><path fill="#1ac62f" d="M426.91 42.6a.2.2 0 0 1 0-.07v-.43l-1-10.77v-.3a5 5 0 0 0-.13-.69 5.55 5.55 0 0 0-4.43-4.13 5.64 5.64 0 0 0-.93-.08h-5.53a5.29 5.29 0 0 0-.8.06 5.56 5.56 0 0 0-4.56 4.14c0 .18-.08.37-.11.55l-.05.58-1 10.7v.25a1.15 1.15 0 0 0 0 .19 1.48 1.48 0 0 0 0 .21 5.56 5.56 0 0 0 4.14 5.37 5.45 5.45 0 0 0 1.41.19h7.51a5.5 5.5 0 0 0 .91-.08 5.57 5.57 0 0 0 4.64-5.48z"/><path fill="#f2338a" d="M406.11 36.67c-2.13 7.11-8.5 10.73-15.54 9.51-7.31-1.26-12.59-11.6-8.95-18 3.12-5.46 9.92-9.5 17-7.32 7.55 2.35 9.64 8.63 7.49 15.81z"/><circle cx="439.1" cy="33.27" r="4.69" fill="#1a1919"/><circle cx="395.46" cy="33.27" r="4.69" fill="#1a1919"/></g></svg>